<svg width="120" height="120" viewBox="0 0 120 120" fill="none" xmlns="http://www.w3.org/2000/svg">
<path d="M63.8168 63.7332H71.084V64.717H63.8168V63.7332ZM67.4453 67.5638C67.1094 68.1987 66.7095 68.8685 66.2459 69.5732C65.789 70.2709 65.3724 70.8326 64.9961 71.2582C66.7566 71.0978 68.3323 70.9338 69.7233 70.7663C69.2731 70.0337 68.8732 69.4093 68.5238 68.8929L69.3201 68.3801C69.6426 68.8336 70.0458 69.4372 70.5296 70.1907C71.0134 70.9443 71.42 71.5966 71.7492 72.1478L70.9026 72.7549C70.701 72.406 70.496 72.0536 70.2877 71.6978L64.9759 72.1792L63.6152 72.3048L63.333 71.2792C63.5346 71.2024 63.6857 71.1326 63.7865 71.0698C63.8941 71.0001 64.0016 70.9024 64.1091 70.7768C64.4787 70.3372 64.865 69.8244 65.2682 69.2383C65.6781 68.6522 66.0242 68.094 66.3064 67.5638H63.0205V66.58H71.8803V67.5638H67.4453Z" fill="black"/>
<path d="M55.6716 65.5334L55.601 66.8416L55.591 67.0614H59.9352C59.9284 67.6056 59.8948 68.279 59.8344 69.0813C59.7739 69.8768 59.7101 70.4663 59.6429 70.8501C59.5689 71.2827 59.4715 71.6141 59.3506 71.8443C59.2363 72.0816 59.065 72.2525 58.8365 72.3572C58.6148 72.4618 58.3023 72.5177 57.8991 72.5246C57.4556 72.5316 56.908 72.5107 56.2562 72.4618L56.0647 71.5094C56.5619 71.5722 57.0592 71.6036 57.5564 71.6036C57.8252 71.6036 58.0268 71.5757 58.1612 71.5199C58.3023 71.4571 58.4098 71.3525 58.4837 71.2059C58.5644 71.0524 58.6349 70.8187 58.6954 70.5047C58.8231 69.8279 58.897 69.0046 58.9172 68.0348H55.4902C55.3961 68.7185 55.2483 69.329 55.0467 69.8663C54.8518 70.3966 54.5763 70.9024 54.2202 71.3838C53.864 71.8653 53.4004 72.3642 52.8292 72.8805L52.1035 72.0432C52.7284 71.5129 53.2089 71.0071 53.5449 70.5256C53.8876 70.0442 54.1395 69.5104 54.3008 68.9244C54.4688 68.3383 54.5797 67.6022 54.6334 66.716C54.6536 66.4509 54.6704 66.0567 54.6838 65.5334H52.1338V64.5705H56.2864C56.0849 64.0123 55.9236 63.5937 55.8026 63.3146L56.8206 63.053C56.9214 63.2693 57.1129 63.7751 57.3952 64.5705H61.0741V65.5334H55.6716Z" fill="black"/>
<path d="M43.7961 67.2079C43.6012 67.5149 43.3291 67.7939 42.9796 68.0451C42.6302 68.2963 42.1598 68.5545 41.5685 68.8196L41.1553 68.0556C41.7264 67.8114 42.1766 67.5567 42.5059 67.2916C42.8352 67.0264 43.0771 66.7194 43.2316 66.3706H41.2359V65.6066H43.4332C43.4601 65.4042 43.4802 65.1112 43.4937 64.7274H42.6168C42.4689 64.9507 42.2808 65.2124 42.0523 65.5124L41.377 64.9995C41.8474 64.4414 42.227 63.8204 42.516 63.1366L43.3324 63.3564C43.1913 63.6774 43.1006 63.8797 43.0603 63.9634H45.8119V64.7274H44.3605C44.3471 65.1042 44.3269 65.3903 44.3 65.5856V65.6066H46.0639V66.3706H44.1488C44.1354 66.4404 44.122 66.4892 44.1085 66.5171C44.5117 66.7055 45.0728 67.0055 45.7918 67.4172C45.8321 67.4381 45.8657 67.459 45.8926 67.48C45.9262 67.4939 45.9564 67.5079 45.9833 67.5218L45.5297 68.2754C45.0795 67.9474 44.5016 67.5916 43.7961 67.2079ZM46.4167 67.7416V63.9006H49.8437V67.7416H46.4167ZM47.2835 66.8834H48.9768V64.7484H47.2835V66.8834ZM43.4937 72.8071H42.5361V68.3905H49.128V72.7862H48.1604V72.3152H43.4937V72.8071ZM48.1604 69.9813V69.1859H43.4937V69.9813H48.1604ZM43.4937 70.7244V71.5408H48.1604V70.7244H43.4937Z" fill="black"/>
<path d="M115.366 59.1404C113.131 59.1404 111.725 57.388 111.725 54.8209C111.725 52.2384 113.175 50.4553 115.366 50.4553C116.033 50.4553 116.743 50.7012 117.335 51.1777V47.1196H119.704V57.019C119.704 57.8337 119.808 58.4794 120 58.9405H117.779C117.705 58.8022 117.646 58.6177 117.602 58.3871C116.98 58.8944 116.24 59.1404 115.366 59.1404ZM113.99 54.8209C113.99 56.2351 114.893 57.388 115.944 57.388C116.477 57.388 117.202 57.2035 117.617 56.3581V53.2683C117.202 52.4075 116.477 52.223 115.944 52.223C114.893 52.223 113.99 53.3759 113.99 54.8209Z" fill="black"/>
<path d="M110.515 58.9558H108.294C108.131 58.6484 108.042 58.3256 108.013 57.972C107.287 58.6484 106.192 59.1403 105.2 59.1403C103.675 59.1403 102.713 58.1257 102.713 56.6654V50.6397H105.082V56.2504C105.082 56.8499 105.496 57.2649 106.133 57.2649C106.547 57.2649 107.376 56.896 107.85 56.5271V50.6397H110.219V57.3572C110.219 58.0335 110.278 58.4178 110.515 58.9558Z" fill="black"/>
<path d="M97.0393 59.1404C94.5522 59.1404 92.835 57.4956 92.835 54.7287C92.835 51.9618 94.4338 50.4399 97.0393 50.4399C99.63 50.4399 101.229 51.9618 101.229 54.7287C101.229 57.4956 99.5264 59.1404 97.0393 59.1404ZM95.174 54.7287C95.174 56.312 95.929 57.3573 97.0393 57.3573C98.1496 57.3573 98.8898 56.312 98.8898 54.7287C98.8898 53.0839 98.1792 52.2231 97.0393 52.2231C95.8994 52.2231 95.174 53.0839 95.174 54.7287Z" fill="black"/>
<path d="M91.923 59.0635H90.7978C89.0214 59.0635 88.1035 58.0182 88.1035 56.0045V47.1196H90.4722V55.3896C90.4722 56.2043 90.5758 56.5886 90.8571 56.8192C90.9607 56.9114 91.0939 56.9729 91.2272 56.9883C91.3604 57.019 91.5825 57.0344 91.923 57.0344V59.0635Z" fill="black"/>
<path d="M86.5995 56.5732V58.6637C85.8445 58.9865 85.0599 59.1403 84.2605 59.1403C81.5513 59.1403 79.6416 57.3264 79.6416 54.8515C79.6416 52.2383 81.4625 50.4552 84.1568 50.4552C84.9266 50.4552 85.7113 50.5935 86.4959 50.8856V52.7763C85.8889 52.515 85.2819 52.3767 84.6454 52.3767C83.0909 52.3767 81.9362 53.0838 81.9362 54.8515C81.9362 56.2965 83.165 57.188 84.7194 57.188C85.4448 57.188 86.1406 56.9575 86.5995 56.5732Z" fill="black"/>
<path d="M77.8998 56.4503V58.4947C77.1448 58.9713 76.0789 59.1865 75.1463 59.1865C71.993 59.1865 70.335 57.5571 70.335 54.744C70.335 51.9617 71.8894 50.4245 74.3913 50.4245C76.8783 50.4245 78.4328 51.9617 78.4328 54.744C78.4328 54.8977 78.418 55.1129 78.4032 55.405H72.6444C72.8664 56.727 73.6955 57.388 75.1463 57.388C76.1677 57.388 77.0856 57.0805 77.8998 56.4503ZM72.7184 53.6834H76.1974C75.9457 52.6535 75.2795 52.1769 74.3913 52.1769C73.5622 52.1769 72.9553 52.6996 72.7184 53.6834Z" fill="black"/>
<path d="M65.4882 59.1404C64.6147 59.1404 63.8745 58.8944 63.2527 58.3871C63.2083 58.6177 63.1491 58.8022 63.0751 58.9405H60.8545C61.0469 58.4794 61.1506 57.8337 61.1506 57.019V47.1196H63.5192V51.1777C64.1114 50.7012 64.822 50.4553 65.4882 50.4553C67.6792 50.4553 69.1299 52.2384 69.1299 54.8209C69.1299 57.388 67.7236 59.1404 65.4882 59.1404ZM63.2675 53.2068V56.4042C63.6821 57.2189 64.3927 57.388 64.9108 57.388C65.9619 57.388 66.8649 56.2351 66.8649 54.8209C66.8649 53.3759 65.9619 52.223 64.9108 52.223C64.3927 52.223 63.6821 52.4075 63.2675 53.2068Z" fill="black"/>
<path d="M59.6445 58.9558H57.4239C57.2611 58.6484 57.1722 58.3256 57.1426 57.972C56.4172 58.6484 55.3217 59.1403 54.3299 59.1403C52.805 59.1403 51.8428 58.1257 51.8428 56.6654V50.6397H54.2114V56.2504C54.2114 56.8499 54.6259 57.2649 55.2625 57.2649C55.677 57.2649 56.506 56.896 56.9798 56.5271V50.6397H59.3484V57.3572C59.3484 58.0335 59.4076 58.4178 59.6445 58.9558Z" fill="black"/>
<path d="M47.0776 59.1403C43.569 59.1403 41.2744 57.0037 41.2744 53.6987C41.2744 52.5151 41.5113 51.4852 41.9998 50.6243C42.9621 48.9181 44.7682 47.9804 47.0036 47.9804C48.1139 47.9804 49.3426 48.2263 50.068 48.5799V50.486C49.0761 50.1017 48.1435 49.9172 47.2849 49.9172C45.2271 49.9172 43.8355 51.1624 43.8355 53.6987C43.8355 54.3751 43.9984 54.9746 44.3092 55.4818C44.9458 56.5271 46.0265 57.1113 47.2108 57.1881L47.5365 57.2035C48.4396 57.2035 49.3722 56.9114 50.068 56.4656V58.587C49.2242 59.002 48.3063 59.1403 47.0776 59.1403Z" fill="black"/>
<path d="M0 50.1359C0 47.2994 2.22388 45 4.96718 45H12.4574V56.413C12.4574 57.8538 11.3278 59.0217 9.93435 59.0217H0V50.1359Z" fill="black"/>
<path d="M26.8066 50.1359C26.8066 47.2994 24.5828 45 21.8395 45H14.3493V53.9674H26.8066V50.1359Z" fill="black"/>
<path d="M35.7949 58.3696H24.126V61.6305H35.7949V58.3696Z" fill="black"/>
<path d="M31.5381 66.0325L31.5381 53.9673L28.3843 53.9673L28.3843 66.0325L31.5381 66.0325Z" fill="black"/>
<path d="M26.8066 69.8641C26.8066 72.7006 24.5828 75 21.8395 75H14.3493V66.0326H26.8066V69.8641Z" fill="black"/>
<path d="M0 69.8641C0 72.7006 2.22388 75 4.96718 75H12.4574V63.587C12.4574 62.1462 11.3278 60.9783 9.93435 60.9783H0V69.8641Z" fill="black"/>
</svg>
