<svg width="1290" height="480" viewBox="0 0 1290 480" fill="none" xmlns="http://www.w3.org/2000/svg">
<path d="M686.03 278.825H764.152V289.057H686.03V278.825ZM725.037 318.663C721.425 325.266 717.127 332.232 712.143 339.561C707.231 346.817 702.753 352.659 698.707 357.085C717.633 355.416 734.572 353.711 749.525 351.969C744.685 344.35 740.387 337.856 736.631 332.486L745.191 327.153C748.658 331.869 752.992 338.146 758.193 345.983C763.394 353.82 767.764 360.605 771.304 366.337L762.202 372.65C760.035 369.022 757.832 365.357 755.593 361.657L698.491 366.664L683.863 367.97L680.829 357.303C682.996 356.505 684.621 355.779 685.705 355.126C686.861 354.4 688.017 353.384 689.172 352.078C693.145 347.507 697.299 342.173 701.633 336.078C706.039 329.983 709.759 324.178 712.793 318.663H677.47V308.431H772.712V318.663H725.037Z" fill="#3277F6"/>
<path d="M598.465 297.547L597.707 311.153L597.598 313.439H644.299C644.226 319.099 643.865 326.101 643.215 334.446C642.565 342.718 641.879 348.85 641.156 352.841C640.362 357.34 639.314 360.786 638.014 363.181C636.786 365.648 634.944 367.426 632.488 368.515C630.104 369.603 626.745 370.183 622.411 370.256C617.644 370.329 611.757 370.111 604.75 369.603L602.691 359.698C608.036 360.351 613.382 360.678 618.727 360.678C621.617 360.678 623.784 360.387 625.228 359.807C626.745 359.154 627.901 358.065 628.696 356.541C629.563 354.945 630.321 352.514 630.971 349.249C632.344 342.21 633.138 333.648 633.355 323.561H596.515C595.504 330.673 593.914 337.022 591.747 342.609C589.653 348.124 586.691 353.385 582.862 358.392C579.034 363.399 574.05 368.587 567.91 373.957L560.108 365.249C566.826 359.734 571.991 354.473 575.603 349.467C579.287 344.46 581.996 338.909 583.729 332.813C585.535 326.718 586.727 319.062 587.305 309.847C587.522 307.089 587.702 302.989 587.847 297.547H560.433V287.533H605.075C602.908 281.728 601.174 277.374 599.874 274.472L610.818 271.751C611.901 274 613.96 279.261 616.994 287.533H656.542V297.547H598.465Z" fill="#3277F6"/>
<path d="M470.812 314.962C468.717 318.154 465.792 321.057 462.036 323.669C458.279 326.281 453.223 328.966 446.866 331.724L442.424 323.778C448.564 321.238 453.404 318.59 456.943 315.832C460.483 313.075 463.083 309.882 464.745 306.254H443.291V298.308H466.912C467.201 296.204 467.417 293.156 467.562 289.165H458.135C456.546 291.487 454.523 294.208 452.067 297.329L444.808 291.995C449.864 286.19 453.945 279.732 457.051 272.621L465.828 274.906C464.311 278.244 463.336 280.349 462.903 281.219H492.483V289.165H476.88C476.736 293.084 476.519 296.059 476.23 298.09V298.308H495.192V306.254H474.605C474.46 306.98 474.316 307.487 474.171 307.778C478.505 309.737 484.537 312.857 492.266 317.138C492.7 317.356 493.061 317.574 493.35 317.792C493.711 317.937 494.036 318.082 494.325 318.227L489.449 326.064C484.609 322.653 478.397 318.953 470.812 314.962ZM498.984 320.513V280.566H535.824V320.513H498.984ZM508.302 311.587H526.506V289.383H508.302V311.587ZM467.562 373.194H457.268V327.261H528.131V372.976H517.729V368.078H467.562V373.194ZM517.729 343.806V335.533H467.562V343.806H517.729ZM467.562 351.534V360.024H517.729V351.534H467.562Z" fill="#3277F6"/>
<path d="M1240.19 231.06C1216.16 231.06 1201.04 212.835 1201.04 186.137C1201.04 159.279 1216.63 140.735 1240.19 140.735C1247.35 140.735 1254.99 143.293 1261.35 148.248V106.044H1286.82V208.998C1286.82 217.471 1287.93 224.185 1290 228.981H1266.13C1265.33 227.543 1264.69 225.624 1264.22 223.226C1257.53 228.502 1249.58 231.06 1240.19 231.06ZM1225.39 186.137C1225.39 200.845 1235.09 212.835 1246.39 212.835C1252.12 212.835 1259.92 210.916 1264.38 202.124V169.99C1259.92 161.038 1252.12 159.119 1246.39 159.119C1235.09 159.119 1225.39 171.109 1225.39 186.137Z" fill="#3277F6"/>
<path d="M1188.03 229.14H1164.16C1162.41 225.943 1161.45 222.586 1161.13 218.909C1153.34 225.943 1141.56 231.059 1130.9 231.059C1114.5 231.059 1104.16 220.508 1104.16 205.32V142.652H1129.62V201.004C1129.62 207.239 1134.08 211.555 1140.92 211.555C1145.38 211.555 1154.29 207.718 1159.38 203.881V142.652H1184.85V212.514C1184.85 219.548 1185.48 223.545 1188.03 229.14Z" fill="#3277F6"/>
<path d="M1043.18 231.06C1016.44 231.06 997.979 213.954 997.979 185.178C997.979 156.402 1015.17 140.575 1043.18 140.575C1071.03 140.575 1088.21 156.402 1088.21 185.178C1088.21 213.954 1069.91 231.06 1043.18 231.06ZM1023.12 185.178C1023.12 201.644 1031.24 212.515 1043.18 212.515C1055.11 212.515 1063.07 201.644 1063.07 185.178C1063.07 168.072 1055.43 159.12 1043.18 159.12C1030.92 159.12 1023.12 168.072 1023.12 185.178Z" fill="#3277F6"/>
<path d="M988.167 230.26H976.072C956.975 230.26 947.108 219.389 947.108 198.447V106.044H972.571V192.052C972.571 200.525 973.685 204.522 976.709 206.92C977.823 207.879 979.255 208.518 980.688 208.678C982.12 208.998 984.507 209.158 988.167 209.158V230.26Z" fill="#3277F6"/>
<path d="M930.942 204.361V226.103C922.826 229.46 914.391 231.059 905.797 231.059C876.674 231.059 856.145 212.194 856.145 186.456C856.145 159.278 875.719 140.734 904.683 140.734C912.959 140.734 921.393 142.173 929.828 145.21V164.874C923.303 162.156 916.778 160.717 909.935 160.717C893.225 160.717 880.812 168.071 880.812 186.456C880.812 201.483 894.021 210.756 910.731 210.756C918.529 210.756 926.008 208.358 930.942 204.361Z" fill="#3277F6"/>
<path d="M837.424 203.083V224.345C829.308 229.301 817.85 231.539 807.824 231.539C773.926 231.539 756.102 214.593 756.102 185.337C756.102 156.401 772.812 140.415 799.707 140.415C826.443 140.415 843.153 156.401 843.153 185.337C843.153 186.936 842.994 189.174 842.835 192.212H780.928C783.316 205.96 792.228 212.835 807.824 212.835C818.804 212.835 828.671 209.637 837.424 203.083ZM781.724 174.307H819.123C816.417 163.596 809.256 158.64 799.707 158.64C790.795 158.64 784.27 164.075 781.724 174.307Z" fill="#3277F6"/>
<path d="M703.998 231.06C694.608 231.06 686.651 228.502 679.967 223.226C679.49 225.624 678.853 227.543 678.057 228.981H654.186C656.255 224.185 657.369 217.471 657.369 208.998V106.044H682.832V148.248C689.198 143.293 696.836 140.735 703.998 140.735C727.551 140.735 743.147 159.279 743.147 186.137C743.147 212.835 728.028 231.06 703.998 231.06ZM680.126 169.351V202.603C684.582 211.076 692.221 212.835 697.791 212.835C709.09 212.835 718.798 200.845 718.798 186.137C718.798 171.109 709.09 159.119 697.791 159.119C692.221 159.119 684.582 161.038 680.126 169.351Z" fill="#3277F6"/>
<path d="M641.178 229.14H617.306C615.555 225.943 614.601 222.586 614.282 218.909C606.484 225.943 594.708 231.059 584.045 231.059C567.653 231.059 557.309 220.508 557.309 205.32V142.652H582.772V201.004C582.772 207.239 587.228 211.555 594.071 211.555C598.527 211.555 607.439 207.718 612.532 203.881V142.652H637.995V212.514C637.995 219.548 638.631 223.545 641.178 229.14Z" fill="#3277F6"/>
<path d="M506.087 231.059C468.37 231.059 443.703 208.838 443.703 174.466C443.703 162.157 446.249 151.445 451.501 142.493C461.845 124.748 481.26 114.996 505.291 114.996C517.227 114.996 530.436 117.554 538.234 121.231V141.054C527.571 137.057 517.545 135.139 508.315 135.139C486.194 135.139 471.234 148.088 471.234 174.466C471.234 181.5 472.985 187.735 476.327 193.011C483.17 203.882 494.788 209.957 507.519 210.756L511.02 210.916C520.728 210.916 530.754 207.879 538.234 203.242V225.304C529.163 229.62 519.296 231.059 506.087 231.059Z" fill="#3277F6"/>
<path d="M0 137.413C0 107.914 23.9067 84 53.3971 84H133.916V202.696C133.916 217.679 121.773 229.826 106.794 229.826H0V137.413Z" fill="#3277F6"/>
<path d="M288.176 137.413C288.176 107.914 264.27 84 234.779 84H154.26V177.261H288.176V137.413Z" fill="#53AFF8"/>
<path d="M384.792 223.044H259.352V256.957H384.792V223.044Z" fill="#3277F6"/>
<path d="M339.037 302.738L339.037 177.26L305.134 177.26L305.134 302.738L339.037 302.738Z" fill="#3277F6"/>
<path d="M288.176 342.587C288.176 372.086 264.27 396 234.779 396H154.26V302.739H288.176V342.587Z" fill="#53AFF8"/>
<path d="M0 342.587C0 372.086 23.9067 396 53.3971 396H133.916V277.304C133.916 262.321 121.773 250.174 106.794 250.174H0V342.587Z" fill="#3277F6"/>
</svg>
