<svg width="512" height="512" viewBox="0 0 512 512" fill="none" xmlns="http://www.w3.org/2000/svg">
<path d="M272.285 271.431H303.292V275.497H272.285V271.431ZM287.767 287.263C286.333 289.888 284.628 292.656 282.649 295.569C280.7 298.453 278.922 300.775 277.317 302.534C284.828 301.871 291.551 301.193 297.486 300.501C295.565 297.473 293.859 294.891 292.369 292.757L295.766 290.638C297.142 292.512 298.862 295.007 300.927 298.121C302.991 301.236 304.725 303.933 306.13 306.211L302.518 308.72C301.658 307.278 300.783 305.822 299.894 304.351L277.231 306.341L271.425 306.86L270.221 302.62C271.081 302.303 271.726 302.015 272.156 301.755C272.615 301.467 273.074 301.063 273.532 300.544C275.109 298.727 276.758 296.607 278.478 294.185C280.227 291.762 281.703 289.455 282.907 287.263H268.888V283.197H306.689V287.263H287.767Z" fill="black"/>
<path d="M237.53 278.871L237.229 284.279L237.186 285.187H255.722C255.693 287.437 255.55 290.22 255.292 293.536C255.034 296.824 254.761 299.261 254.475 300.847C254.159 302.635 253.743 304.005 253.227 304.957C252.74 305.937 252.009 306.644 251.034 307.076C250.088 307.509 248.755 307.74 247.035 307.768C245.142 307.797 242.806 307.711 240.025 307.509L239.208 303.572C241.329 303.832 243.451 303.962 245.572 303.962C246.719 303.962 247.579 303.846 248.153 303.616C248.755 303.356 249.214 302.923 249.529 302.318C249.873 301.683 250.174 300.717 250.432 299.419C250.977 296.622 251.292 293.219 251.378 289.21H236.756C236.355 292.037 235.724 294.56 234.864 296.781C234.033 298.972 232.857 301.063 231.338 303.053C229.818 305.043 227.84 307.105 225.403 309.239L222.307 305.779C224.973 303.587 227.023 301.496 228.456 299.506C229.919 297.516 230.994 295.31 231.682 292.887C232.399 290.465 232.872 287.422 233.101 283.76C233.187 282.664 233.259 281.034 233.316 278.871H222.436V274.891H240.154C239.294 272.584 238.606 270.854 238.09 269.7L242.433 268.619C242.863 269.513 243.68 271.604 244.884 274.891H260.581V278.871H237.53Z" fill="black"/>
<path d="M186.865 285.792C186.034 287.061 184.872 288.215 183.382 289.253C181.891 290.291 179.884 291.358 177.361 292.454L175.598 289.296C178.035 288.287 179.956 287.234 181.36 286.138C182.765 285.043 183.797 283.774 184.457 282.332H175.942V279.174H185.317C185.432 278.337 185.518 277.126 185.575 275.54H181.833C181.203 276.463 180.4 277.544 179.425 278.784L176.544 276.665C178.551 274.358 180.171 271.791 181.403 268.965L184.887 269.873C184.285 271.2 183.898 272.036 183.726 272.382H195.466V275.54H189.273C189.216 277.097 189.13 278.28 189.015 279.087V279.174H196.541V282.332H188.37C188.313 282.62 188.256 282.822 188.198 282.937C189.918 283.716 192.312 284.956 195.38 286.658C195.552 286.744 195.695 286.831 195.81 286.917C195.953 286.975 196.082 287.033 196.197 287.09L194.262 290.205C192.341 288.849 189.875 287.379 186.865 285.792ZM198.046 287.999V272.123H212.668V287.999H198.046ZM201.745 284.451H208.97V275.627H201.745V284.451ZM185.575 308.936H181.489V290.681H209.615V308.85H205.486V306.903H185.575V308.936ZM205.486 297.256V293.968H185.575V297.256H205.486ZM185.575 300.327V303.702H205.486V300.327H185.575Z" fill="black"/>
<path d="M492.23 252.447C482.692 252.447 476.691 245.204 476.691 234.593C476.691 223.919 482.881 216.548 492.23 216.548C495.072 216.548 498.104 217.565 500.631 219.535V202.761H510.737V243.679C510.737 247.046 511.179 249.715 512 251.621H502.525C502.21 251.049 501.957 250.286 501.767 249.333C499.115 251.43 495.956 252.447 492.23 252.447ZM486.355 234.593C486.355 240.438 490.208 245.204 494.693 245.204C496.967 245.204 500.062 244.441 501.831 240.947V228.176C500.062 224.618 496.967 223.855 494.693 223.855C490.208 223.855 486.355 228.62 486.355 234.593Z" fill="black"/>
<path d="M471.529 251.684H462.054C461.359 250.413 460.98 249.079 460.854 247.618C457.759 250.413 453.085 252.446 448.853 252.446C442.347 252.446 438.241 248.253 438.241 242.217V217.311H448.347V240.502C448.347 242.979 450.116 244.695 452.832 244.695C454.601 244.695 458.138 243.17 460.159 241.645V217.311H470.265V245.076C470.265 247.872 470.518 249.46 471.529 251.684Z" fill="black"/>
<path d="M414.036 252.447C403.425 252.447 396.098 245.648 396.098 234.212C396.098 222.775 402.919 216.485 414.036 216.485C425.09 216.485 431.912 222.775 431.912 234.212C431.912 245.648 424.648 252.447 414.036 252.447ZM406.078 234.212C406.078 240.756 409.299 245.077 414.036 245.077C418.773 245.077 421.932 240.756 421.932 234.212C421.932 227.413 418.9 223.855 414.036 223.855C409.173 223.855 406.078 227.413 406.078 234.212Z" fill="black"/>
<path d="M392.203 252.129H387.403C379.823 252.129 375.907 247.809 375.907 239.485V202.761H386.013V236.944C386.013 240.311 386.456 241.9 387.656 242.853C388.098 243.234 388.666 243.488 389.235 243.552C389.803 243.679 390.751 243.742 392.203 243.742V252.129Z" fill="black"/>
<path d="M369.491 241.836V250.477C366.269 251.811 362.922 252.446 359.511 252.446C347.952 252.446 339.804 244.949 339.804 234.72C339.804 223.918 347.573 216.548 359.069 216.548C362.353 216.548 365.701 217.12 369.049 218.327V226.142C366.459 225.062 363.869 224.49 361.153 224.49C354.521 224.49 349.594 227.413 349.594 234.72C349.594 240.692 354.837 244.377 361.469 244.377C364.564 244.377 367.533 243.424 369.491 241.836Z" fill="black"/>
<path d="M332.373 241.328V249.778C329.152 251.748 324.604 252.637 320.625 252.637C307.171 252.637 300.097 245.902 300.097 234.275C300.097 222.775 306.729 216.421 317.404 216.421C328.015 216.421 334.647 222.775 334.647 234.275C334.647 234.91 334.584 235.8 334.521 237.007H309.95C310.898 242.471 314.435 245.203 320.625 245.203C324.983 245.203 328.899 243.933 332.373 241.328ZM310.266 229.891H325.11C324.036 225.634 321.193 223.664 317.404 223.664C313.866 223.664 311.277 225.825 310.266 229.891Z" fill="black"/>
<path d="M279.417 252.447C275.69 252.447 272.532 251.43 269.879 249.333C269.69 250.286 269.437 251.049 269.121 251.621H259.646C260.468 249.715 260.91 247.046 260.91 243.679V202.761H271.016V219.535C273.543 217.565 276.574 216.548 279.417 216.548C288.765 216.548 294.955 223.919 294.955 234.593C294.955 245.204 288.955 252.447 279.417 252.447ZM269.942 227.921V241.137C271.711 244.505 274.743 245.204 276.953 245.204C281.438 245.204 285.291 240.438 285.291 234.593C285.291 228.62 281.438 223.855 276.953 223.855C274.743 223.855 271.711 224.618 269.942 227.921Z" fill="black"/>
<path d="M254.483 251.684H245.008C244.313 250.413 243.934 249.079 243.808 247.618C240.713 250.413 236.039 252.446 231.807 252.446C225.301 252.446 221.195 248.253 221.195 242.217V217.311H231.302V240.502C231.302 242.979 233.07 244.695 235.786 244.695C237.555 244.695 241.092 243.17 243.113 241.645V217.311H253.219V245.076C253.219 247.872 253.472 249.46 254.483 251.684Z" fill="black"/>
<path d="M200.866 252.447C185.896 252.447 176.105 243.615 176.105 229.955C176.105 225.062 177.116 220.805 179.2 217.247C183.306 210.195 191.012 206.319 200.55 206.319C205.287 206.319 210.53 207.335 213.625 208.797V216.675C209.393 215.087 205.414 214.324 201.75 214.324C192.97 214.324 187.033 219.471 187.033 229.955C187.033 232.75 187.728 235.228 189.054 237.325C191.77 241.645 196.381 244.06 201.434 244.377L202.824 244.441C206.677 244.441 210.656 243.234 213.625 241.391V250.159C210.024 251.875 206.108 252.447 200.866 252.447Z" fill="black"/>
<path d="M0 215.228C0 203.504 9.48856 194 21.1933 194H53.1514V241.174C53.1514 247.129 48.3318 251.957 42.3866 251.957H0V215.228Z" fill="black"/>
<path d="M114.377 215.228C114.377 203.504 104.888 194 93.1837 194H61.2255V231.065H114.377V215.228Z" fill="black"/>
<path d="M152.725 249.261H102.937V262.739H152.725V249.261Z" fill="black"/>
<path d="M134.563 280.934L134.563 231.065L121.107 231.065L121.107 280.934L134.563 280.934Z" fill="black"/>
<path d="M114.377 296.772C114.377 308.496 104.888 318 93.1837 318H61.2255V280.935H114.377V296.772Z" fill="black"/>
<path d="M0 296.772C0 308.496 9.48856 318 21.1933 318H53.1514V270.826C53.1514 264.871 48.3318 260.043 42.3866 260.043H0V296.772Z" fill="black"/>
</svg>
