<svg width="800" height="800" viewBox="0 0 800 800" fill="none" xmlns="http://www.w3.org/2000/svg">
<path d="M425.445 424.141H473.893V430.503H425.445V424.141ZM449.636 448.912C447.396 453.018 444.73 457.35 441.639 461.907C438.593 466.419 435.816 470.051 433.307 472.803C445.044 471.765 455.549 470.705 464.822 469.622C461.82 464.885 459.155 460.846 456.826 457.507L462.134 454.191C464.284 457.124 466.972 461.027 470.197 465.9C473.423 470.773 476.133 474.991 478.328 478.556L472.684 482.481C471.34 480.225 469.973 477.947 468.585 475.646L433.173 478.759L424.101 479.571L422.22 472.938C423.564 472.442 424.572 471.991 425.244 471.585C425.96 471.134 426.677 470.502 427.394 469.69C429.858 466.847 432.434 463.531 435.121 459.741C437.854 455.951 440.161 452.341 442.042 448.912H420.137V442.55H479.202V448.912H449.636Z" fill="#3277F6"/>
<path d="M371.142 435.783L370.671 444.243L370.604 445.664H399.565C399.521 449.183 399.297 453.537 398.894 458.726C398.49 463.87 398.065 467.682 397.617 470.164C397.124 472.961 396.474 475.104 395.668 476.593C394.907 478.127 393.764 479.233 392.241 479.91C390.763 480.586 388.68 480.947 385.992 480.993C383.035 481.038 379.384 480.902 375.039 480.586L373.762 474.428C377.077 474.834 380.392 475.037 383.707 475.037C385.499 475.037 386.843 474.856 387.739 474.495C388.68 474.089 389.397 473.412 389.889 472.465C390.427 471.472 390.897 469.961 391.3 467.93C392.152 463.554 392.644 458.23 392.779 451.958H369.932C369.305 456.38 368.32 460.328 366.976 463.802C365.676 467.231 363.84 470.502 361.466 473.615C359.091 476.729 356 479.955 352.193 483.294L347.354 477.879C351.521 474.45 354.724 471.179 356.963 468.066C359.248 464.953 360.928 461.501 362.003 457.711C363.123 453.921 363.862 449.161 364.221 443.43C364.355 441.716 364.467 439.167 364.557 435.783H347.556V429.556H375.241C373.897 425.946 372.822 423.239 372.015 421.434L378.802 419.742C379.474 421.141 380.751 424.412 382.632 429.556H407.159V435.783H371.142Z" fill="#3277F6"/>
<path d="M291.976 446.611C290.677 448.596 288.863 450.401 286.534 452.025C284.204 453.649 281.068 455.319 277.126 457.033L274.371 452.093C278.179 450.514 281.18 448.867 283.375 447.152C285.57 445.438 287.183 443.452 288.213 441.196H274.909V436.256H289.557C289.736 434.947 289.871 433.052 289.96 430.571H284.114C283.129 432.014 281.875 433.706 280.352 435.647L275.849 432.33C278.985 428.721 281.516 424.705 283.443 420.283L288.885 421.705C287.945 423.78 287.34 425.089 287.071 425.63H305.415V430.571H295.739C295.65 433.007 295.515 434.857 295.336 436.12V436.256H307.095V441.196H294.328C294.239 441.648 294.149 441.963 294.059 442.144C296.747 443.362 300.488 445.302 305.281 447.964C305.55 448.1 305.774 448.235 305.953 448.37C306.177 448.461 306.379 448.551 306.558 448.641L303.534 453.514C300.533 451.393 296.68 449.092 291.976 446.611ZM309.447 450.062V425.224H332.294V450.062H309.447ZM315.226 444.513H326.515V430.706H315.226V444.513ZM289.96 482.819H283.577V454.259H327.523V482.684H321.072V479.638H289.96V482.819ZM321.072 464.546V459.402H289.96V464.546H321.072ZM289.96 469.351V474.63H321.072V469.351H289.96Z" fill="#3277F6"/>
<path d="M769.109 394.441C754.206 394.441 744.83 383.109 744.83 366.508C744.83 349.808 754.502 338.277 769.109 338.277C773.55 338.277 778.287 339.868 782.235 342.949V316.707H798.026V380.723C798.026 385.992 798.717 390.167 800 393.149H785.196C784.702 392.254 784.307 391.061 784.011 389.57C779.866 392.85 774.932 394.441 769.109 394.441ZM759.93 366.508C759.93 375.653 765.951 383.109 772.958 383.109C776.511 383.109 781.347 381.916 784.11 376.449V356.468C781.347 350.902 776.511 349.709 772.958 349.709C765.951 349.709 759.93 357.164 759.93 366.508Z" fill="#3277F6"/>
<path d="M736.763 393.248H721.959C720.874 391.26 720.282 389.172 720.084 386.886C715.248 391.26 707.945 394.44 701.332 394.44C691.167 394.44 684.752 387.88 684.752 378.436V339.47H700.543V375.752C700.543 379.629 703.306 382.313 707.55 382.313C710.314 382.313 715.84 379.927 718.999 377.542V339.47H734.79V382.91C734.79 387.283 735.184 389.768 736.763 393.248Z" fill="#3277F6"/>
<path d="M646.931 394.441C630.351 394.441 618.902 383.805 618.902 365.912C618.902 348.019 629.561 338.178 646.931 338.178C664.203 338.178 674.862 348.019 674.862 365.912C674.862 383.805 663.512 394.441 646.931 394.441ZM634.496 365.912C634.496 376.151 639.529 382.91 646.931 382.91C654.333 382.91 659.268 376.151 659.268 365.912C659.268 355.276 654.531 349.709 646.931 349.709C639.332 349.709 634.496 355.276 634.496 365.912Z" fill="#3277F6"/>
<path d="M612.818 393.944H605.318C593.474 393.944 587.355 387.184 587.355 374.162V316.707H603.146V370.186C603.146 375.455 603.837 377.94 605.712 379.431C606.403 380.027 607.292 380.425 608.18 380.524C609.068 380.723 610.548 380.823 612.818 380.823V393.944Z" fill="#3277F6"/>
<path d="M577.329 377.84V391.359C572.296 393.446 567.065 394.44 561.736 394.44C543.675 394.44 530.943 382.711 530.943 366.707C530.943 349.808 543.083 338.277 561.045 338.277C566.177 338.277 571.408 339.171 576.638 341.06V353.287C572.592 351.597 568.546 350.702 564.302 350.702C553.939 350.702 546.241 355.275 546.241 366.707C546.241 376.051 554.432 381.816 564.795 381.816C569.631 381.816 574.27 380.325 577.329 377.84Z" fill="#3277F6"/>
<path d="M519.334 377.045V390.266C514.3 393.347 507.194 394.739 500.977 394.739C479.955 394.739 468.901 384.202 468.901 366.011C468.901 348.019 479.264 338.078 495.943 338.078C512.524 338.078 522.887 348.019 522.887 366.011C522.887 367.005 522.788 368.397 522.689 370.286H484.298C485.778 378.834 491.305 383.109 500.977 383.109C507.787 383.109 513.906 381.121 519.334 377.045ZM484.791 359.152H507.984C506.306 352.492 501.865 349.411 495.943 349.411C490.417 349.411 486.37 352.79 484.791 359.152Z" fill="#3277F6"/>
<path d="M436.588 394.441C430.765 394.441 425.831 392.85 421.686 389.57C421.39 391.061 420.995 392.254 420.501 393.149H405.697C406.98 390.167 407.671 385.992 407.671 380.723V316.707H423.462V342.949C427.41 339.868 432.147 338.277 436.588 338.277C451.195 338.277 460.867 349.808 460.867 366.508C460.867 383.109 451.491 394.441 436.588 394.441ZM421.784 356.071V376.747C424.548 382.015 429.285 383.109 432.739 383.109C439.747 383.109 445.767 375.653 445.767 366.508C445.767 357.164 439.747 349.709 432.739 349.709C429.285 349.709 424.548 350.902 421.784 356.071Z" fill="#3277F6"/>
<path d="M397.629 393.248H382.825C381.739 391.26 381.147 389.172 380.949 386.886C376.113 391.26 368.81 394.44 362.198 394.44C352.032 394.44 345.617 387.88 345.617 378.436V339.47H361.408V375.752C361.408 379.629 364.172 382.313 368.415 382.313C371.179 382.313 376.706 379.927 379.864 377.542V339.47H395.655V382.91C395.655 387.283 396.05 389.768 397.629 393.248Z" fill="#3277F6"/>
<path d="M313.853 394.441C290.463 394.441 275.165 380.624 275.165 359.252C275.165 351.597 276.744 344.937 280.001 339.371C286.416 328.337 298.457 322.273 313.359 322.273C320.761 322.273 328.953 323.864 333.789 326.15V338.476C327.177 335.991 320.959 334.798 315.235 334.798C301.516 334.798 292.239 342.85 292.239 359.252C292.239 363.625 293.325 367.502 295.397 370.782C299.641 377.542 306.846 381.319 314.741 381.816L316.912 381.916C322.933 381.916 329.15 380.027 333.789 377.144V390.862C328.163 393.546 322.044 394.441 313.853 394.441Z" fill="#3277F6"/>
<path d="M0 336.212C0 317.869 14.8259 303 33.1145 303H83.0491V376.804C83.0491 386.121 75.5185 393.674 66.229 393.674H0V336.212Z" fill="#3277F6"/>
<path d="M178.714 336.212C178.714 317.869 163.888 303 145.599 303H95.6648V360.989H178.714V336.212Z" fill="#53AFF8"/>
<path d="M238.632 389.457H160.839V410.544H238.632V389.457Z" fill="#3277F6"/>
<path d="M210.256 439.01L210.256 360.989L189.231 360.989L189.231 439.01L210.256 439.01Z" fill="#3277F6"/>
<path d="M178.714 463.788C178.714 482.131 163.888 497 145.599 497H95.6648V439.011H178.714V463.788Z" fill="#53AFF8"/>
<path d="M0 463.788C0 482.131 14.8259 497 33.1145 497H83.0491V423.196C83.0491 413.879 75.5185 406.326 66.229 406.326H0V463.788Z" fill="#3277F6"/>
</svg>
